<svg viewBox="0 0 200 200" xmlns="http://www.w3.org/2000/svg">
  <path fill="#ECE7EE" d="M29.4,-52.9C41.4,-43.9,56.7,-42.8,67.7,-35.3C78.7,-27.8,85.4,-13.9,81.7,-2.1C78,9.6,64.1,19.3,55.6,31.1C47.1,43,44,57,35.7,65.5C27.3,74,13.7,77,-0.4,77.7C-14.5,78.4,-29,76.8,-38.2,68.8C-47.4,60.8,-51.3,46.3,-60.5,33.8C-69.7,21.3,-84.1,10.6,-88.3,-2.5C-92.6,-15.5,-86.7,-31.1,-77.7,-43.9C-68.7,-56.8,-56.6,-67,-43.2,-75.2C-29.7,-83.3,-14.9,-89.5,-3.1,-84.1C8.7,-78.7,17.3,-61.9,29.4,-52.9Z" transform="translate(100 100)" />
</svg>