<svg width="1110.46" height="857.68" xmlns="http://www.w3.org/2000/svg">
 <defs>
  <linearGradient y2="0.00008" x2="0.50004" y1="1.00008" x1="0.50004" id="ed123d47-1cc8-43ee-8efc-264e01b6d696">
   <stop stop-opacity="0.25" stop-color="gray" offset="0"/>
   <stop stop-opacity="0.12" stop-color="gray" offset="0.54"/>
   <stop stop-opacity="0.1" stop-color="gray" offset="1"/>
  </linearGradient>
 </defs>
 <title>prototyping process</title>
 <g>
  <title>Layer 1</title>
  <ellipse id="svg_1" opacity="0.1" fill="#494442" ry="36" rx="237.5" cy="819.11589" cx="346.73"/>
  <path stroke="null" id="svg_2" opacity="0.1" fill="#553782" d="m272.34979,46.52769c29.15124,-36.01871 74.91722,-43.39604 116.58176,-40.48851c130.84396,9.02638 248.94248,96.54534 351.13047,195.56426c36.99043,35.85598 73.4082,74.47846 97.41328,123.8523c48.87689,100.48353 34.37479,239.69804 -33.58545,322.47599c-23.12289,28.20743 -51.15203,49.76441 -79.92409,68.90207c-51.16751,34.03335 -106.37456,61.35115 -164.44489,69.12989c-41.40916,5.54384 -83.32906,1.03066 -124.49833,-6.70469c-115.0263,-21.61123 -227.93223,-69.43367 -322.55962,-151.20266c-41.50202,-35.82343 -80.62056,-80.45626 -97.73057,-138.48762s-6.19087,-131.56595 36.22431,-165.90307c17.52789,-14.2122 38.48397,-20.61312 58.99896,-26.65602c30.18047,-8.86364 60.88717,-17.60794 88.14246,-35.62815c28.14523,-18.62775 61.4753,-54.63562 55.90352,-95.84016c-5.98192,-44.23142 -10.79532,-83.06002 18.34818,-119.01364z"/>
  <path id="svg_3" fill="#d0b8ad" d="m920.83,88.46c6.76,44.56 -12.05,84.37 -12.05,84.37s-29.77,-32.43 -36.55,-76.99c-3.79,-25 0.46,-48.48 4.92,-64.3a11,11 0 0 1 19.89,-3c8.97,13.76 20,34.93 23.79,59.92z"/>
  <path id="svg_4" fill="#d0b8ad" d="m1046.53,159.48a76.91,76.91 0 0 1 19.85,2.51c10.91,2.8 11.08,18.25 0.23,21.29a77.15,77.15 0 0 1 -19.79,2.94c-24.53,0.27 -44.56,-12.89 -44.56,-12.89s19.74,-13.58 44.27,-13.85z"/>
  <path id="svg_5" fill="#d0b8ad" d="m977.55,91.74c-22.83,25.09 -27.66,57.88 -27.66,57.88s32.18,-7.9 55,-33c10.58,-11.63 17.3,-24.91 21.46,-35.81a11,11 0 0 0 -15.12,-13.8c-10.52,5.17 -23.1,13.1 -33.68,24.73z"/>
  <rect id="svg_6" fill="#464353" rx="19.8" height="618.97" width="514" y="87.01" x="511.46"/>
  <rect id="svg_7" opacity="0.1" fill="#d0b8ad" height="494.09" width="425.32" y="149.45" x="555.8"/>
  <circle id="svg_8" fill="#fff" r="18.1" cy="676.12" cx="768.46"/>
  <path id="svg_9" fill="#fff" d="m768.46,131.76a8.55,8.55 0 1 1 8.55,-8.55a8.57,8.57 0 0 1 -8.55,8.55z"/>
  <path id="svg_10" fill="#fff" d="m768.46,115.16a8.05,8.05 0 1 1 -8.05,8.05a8.06,8.06 0 0 1 8.05,-8.05m0,-1a9.05,9.05 0 1 0 9,9.05a9,9 0 0 0 -9,-9.05z"/>
  <rect id="svg_11" stroke-miterlimit="10" stroke="#fff" fill="#fff" rx="4.3" height="119.92" width="88.21" y="302.51" x="575.56"/>
  <rect id="svg_12" opacity="0.5" fill="#d0b8ad" rx="7.14" height="38.05" width="71.67" y="332.73" x="583.83"/>
  <rect id="svg_13" fill="#d0b8ad" rx="1.69" height="5.91" width="41.75" y="386.3" x="598.79"/>
  <rect id="svg_14" stroke-miterlimit="10" stroke="#fff" fill="#fff" rx="4.3" height="119.92" width="88.21" y="302.51" x="724.69"/>
  <rect id="svg_15" opacity="0.5" fill="#d0b8ad" rx="1.46" height="22.44" width="42.27" y="321.24" x="747.89"/>
  <rect id="svg_16" fill="#d0b8ad" rx="1.69" height="5.91" width="53.96" y="364.71" x="741.71"/>
  <rect id="svg_17" fill="#d0b8ad" rx="1.69" height="5.91" width="53.96" y="375.73" x="741.71"/>
  <rect id="svg_18" stroke-miterlimit="10" stroke="#fff" fill="#fff" rx="4.3" height="119.92" width="88.21" y="217.32" x="873.15"/>
  <rect id="svg_19" opacity="0.5" fill="#d0b8ad" rx="1.46" height="26.8" width="57.43" y="235.93" x="888.54"/>
  <rect id="svg_20" opacity="0.5" fill="#d0b8ad" rx="1.46" height="26.8" width="57.43" y="274.88" x="888.54"/>
  <rect id="svg_21" fill="#d0b8ad" rx="3.83" height="8.27" width="18.84" y="323.28" x="883.95"/>
  <rect id="svg_22" fill="#d0b8ad" rx="3.83" height="8.27" width="18.84" y="323.28" x="907.84"/>
  <rect id="svg_23" fill="#d0b8ad" rx="3.83" height="8.27" width="18.84" y="323.28" x="931.73"/>
  <rect id="svg_24" stroke-miterlimit="10" stroke="#fff" fill="#fff" rx="4.3" height="119.92" width="88.21" y="387.7" x="872.94"/>
  <rect id="svg_25" opacity="0.5" fill="#d0b8ad" rx="1.46" height="26.8" width="26.36" y="401.72" x="879.75"/>
  <rect id="svg_26" fill="#d0b8ad" rx="1.69" height="5.91" width="53.96" y="444.84" x="890.07"/>
  <rect id="svg_27" fill="#d0b8ad" rx="1.69" height="5.91" width="53.96" y="456.79" x="890.07"/>
  <rect id="svg_28" fill="#d0b8ad" rx="1.69" height="5.91" width="53.96" y="468.74" x="890.07"/>
  <path id="svg_29" stroke-miterlimit="10" stroke="#fff" fill="#fff" d="m714.52,359.61l-1.35,0.65l-10.94,5.26l-1,0.47a0.54,0.54 0 0 1 -0.73,-0.29a0.59,0.59 0 0 1 0,-0.2l0,-3.11a0.53,0.53 0 0 0 -0.53,-0.53l-26.59,0a0.54,0.54 0 0 1 -0.54,-0.53l0,-4.39a0.54,0.54 0 0 1 0.54,-0.53l26.62,0a0.54,0.54 0 0 0 0.53,-0.54l0,-3.18a0.65,0.65 0 0 1 0,-0.2a0.54,0.54 0 0 1 0.73,-0.28l1,0.47l10.91,5.31l1.35,0.66a0.53,0.53 0 0 1 0,0.96z"/>
  <path id="svg_30" stroke-miterlimit="10" stroke="#fff" fill="#fff" d="m862.55,332.64l-0.88,1.21l-7.16,9.76l-0.63,0.87a0.55,0.55 0 0 1 -0.78,0.09a0.48,0.48 0 0 1 -0.12,-0.16l-1.46,-2.74a0.55,0.55 0 0 0 -0.73,-0.23l-23.5,12.51a0.53,0.53 0 0 1 -0.72,-0.22l-2.06,-3.89a0.53,0.53 0 0 1 0.22,-0.72l23.5,-12.49a0.53,0.53 0 0 0 0.22,-0.72l-1.49,-2.81a0.35,0.35 0 0 1 -0.06,-0.19a0.52,0.52 0 0 1 0.51,-0.59l1.07,0l12.12,-0.44l1.5,-0.05a0.53,0.53 0 0 1 0.45,0.81z"/>
  <path id="svg_31" stroke-miterlimit="10" stroke="#fff" fill="#fff" d="m862.47,383.9l-1.49,0l-12.11,0l-1.07,0a0.53,0.53 0 0 1 -0.53,-0.57a0.45,0.45 0 0 1 0.05,-0.19l1.34,-2.81a0.53,0.53 0 0 0 -0.25,-0.71l-24,-11.52a0.54,0.54 0 0 1 -0.25,-0.72l1.9,-3.95a0.52,0.52 0 0 1 0.71,-0.25l24,11.53a0.55,0.55 0 0 0 0.72,-0.25l1.38,-2.87a0.52,0.52 0 0 1 0.89,-0.1l0.67,0.83l7.53,9.52l0.93,1.18a0.53,0.53 0 0 1 -0.42,0.88z"/>
  <polygon id="svg_32" fill="#504f60" points="424.19 606.65 424.11 609.58 419.01 789.65 410.43 789.65 414.64 609.58 414.72 606.2 424.19 606.65"/>
  <polygon id="svg_33" opacity="0.1" points="424.19 606.65 424.11 609.58 419.01 789.65 410.43 789.65 414.64 609.58 414.72 606.2 424.19 606.65"/>
  <polygon id="svg_34" fill="#504f60" points="473.84 759.19 467.42 759.17 371.97 758.97 366.89 758.96 369.59 750.61 473.16 750.61 473.84 759.19"/>
  <polygon id="svg_35" opacity="0.1" points="424.19 606.65 424.11 609.58 414.64 609.58 414.72 606.2 424.19 606.65"/>
  <rect id="svg_36" fill="#504f60" height="5.98" width="15.91" y="602.25" x="411.9"/>
  <polygon id="svg_37" opacity="0.1" points="372.82 750.61 371.97 758.97 366.89 758.96 369.59 750.61 372.82 750.61"/>
  <polygon id="svg_38" fill="#504f60" points="386.52 602.14 386.25 604.73 365.08 813.56 355.38 813.11 377.69 604.73 377.94 602.36 386.52 602.14"/>
  <polygon id="svg_39" opacity="0.1" points="473.84 759.19 467.42 759.17 466.55 750.61 473.16 750.61 473.84 759.19"/>
  <polygon id="svg_40" fill="#504f60" points="484 813.11 474.29 813.56 453.12 604.73 452.86 602.14 461.43 602.36 461.68 604.73 484 813.11"/>
  <rect id="svg_41" fill="#fff" height="205.11" width="213.91" y="396.23" x="311.38"/>
  <rect id="svg_42" fill="#fff" rx="4.13" height="205.11" width="308" y="396.23" x="264.46"/>
  <path id="svg_43" fill="#504f60" d="m422.5,327.64l0,49.53l-8.34,0l0,-49.53a4.17,4.17 0 1 1 8.34,0z"/>
  <rect id="svg_44" opacity="0.1" height="4.51" width="8.35" y="372.66" x="414.16"/>
  <path id="svg_45" fill="#504f60" d="m425.78,376.04l0,16.36l-14.89,0l0,-16.36a2,2 0 0 1 2,-2l10.83,0a2,2 0 0 1 2.06,2z"/>
  <circle id="svg_46" opacity="0.1" r="3.16" cy="384.39" cx="418.33"/>
  <circle id="svg_47" fill="#3f3d56" r="3.16" cy="383.71" cx="418.33"/>
  <rect id="svg_48" opacity="0.1" height="2.03" width="14.89" y="390.37" x="410.89"/>
  <rect id="svg_49" opacity="0.1" height="4.51" width="27.08" y="393.08" x="404.79"/>
  <rect id="svg_50" fill="#504f60" height="4.51" width="27.08" y="391.72" x="404.79"/>
  <path id="svg_51" opacity="0.1" d="m364.63,596l111.58,0a6,6 0 0 1 6,6l0,0a0,0 0 0 1 0,0l-123.56,0a0,0 0 0 1 0,0l0,0a6,6 0 0 1 5.98,-6z"/>
  <polygon id="svg_52" opacity="0.1" points="377.94 602.36 386.52 602.14 386.25 604.73 377.69 604.73 377.94 602.36"/>
  <rect id="svg_53" opacity="0.1" height="2.48" width="15.91" y="602.25" x="411.9"/>
  <polygon id="svg_54" opacity="0.1" points="461.68 604.73 453.12 604.73 452.86 602.14 461.43 602.36 461.68 604.73"/>
  <path id="svg_55" fill="#504f60" d="m364.63,597.4l111.58,0a6,6 0 0 1 6,6l0,0a0,0 0 0 1 0,0l-123.56,0a0,0 0 0 1 0,0l0,0a6,6 0 0 1 6,-6l-0.02,0z"/>
  <path id="svg_56" stroke-width="3" stroke-miterlimit="10" stroke="#33313f" fill="#fff" d="m517.82,420.32a1.49,1.49 0 0 1 1.71,1.64c-1.45,14 -0.52,28.34 1.05,42.31c0.73,6.39 1.72,13.15 4.55,17.89a1.51,1.51 0 0 1 -0.2,1.86a4,4 0 0 1 -2.78,0.83l-44.63,0.25a1.49,1.49 0 0 1 -1.46,-1.84c3.59,-15.3 2.82,-32 1.38,-47.87c-0.71,-7.81 -1.12,-12 4.71,-12.55c6,-0.54 12,-0.79 18,-1.29c1.44,-0.12 12.98,-0.46 17.67,-1.23z"/>
  <path id="svg_57" stroke-width="3" stroke-miterlimit="10" stroke="#33313f" fill="#fff" d="m483.67,512.01a1.49,1.49 0 0 0 -1.71,1.64c1.45,14 0.52,28.34 -1.06,42.31c-0.72,6.39 -1.71,13.15 -4.54,17.9a1.49,1.49 0 0 0 0.2,1.85a4,4 0 0 0 2.78,0.83l44.63,0.26a1.51,1.51 0 0 0 1.46,-1.85c-3.59,-15.3 -2.82,-32 -1.38,-47.87c0.71,-7.81 1.12,-12 -4.71,-12.55s-12,-0.79 -18,-1.29c-1.44,-0.12 -12.98,-0.46 -17.67,-1.23z"/>
  <path id="svg_58" stroke-width="2" stroke-miterlimit="10" stroke-linecap="round" stroke="#33313f" fill="none" d="m496.78,537.77a132.37,132.37 0 0 1 15.56,0.19a1.47,1.47 0 0 1 1.32,1.3l0.49,4.09a0.58,0.58 0 0 1 -0.12,0.53a0.55,0.55 0 0 1 -0.38,0.1c-2.18,0.06 -4.36,-0.19 -6.53,0c-1.35,0.11 -2.69,0.37 -4,0.52a47.75,47.75 0 0 1 -6.66,0.12a33.56,33.56 0 0 1 -9.27,-1.14s0.18,-3.39 0.18,-3.71c0,-1.58 -0.05,-1.72 1.58,-1.76l7.83,-0.24z"/>
  <path id="svg_59" stroke-width="2" stroke-miterlimit="10" stroke-linecap="round" stroke="#33313f" fill="none" d="m496.78,556.21a130.24,130.24 0 0 0 15.56,-0.2a1.47,1.47 0 0 0 1.32,-1.3l0.49,-4.08a0.6,0.6 0 0 0 -0.12,-0.54a0.55,0.55 0 0 0 -0.38,-0.1c-2.18,-0.06 -4.36,0.2 -6.53,0c-1.35,-0.1 -2.69,-0.36 -4,-0.51a46.26,46.26 0 0 0 -6.66,-0.12a33.56,33.56 0 0 0 -9.27,1.14s0.18,3.38 0.18,3.71c0,1.58 -0.05,1.71 1.58,1.76l7.83,0.24z"/>
  <path id="svg_60" stroke-width="2" stroke-miterlimit="10" stroke-linecap="round" stroke="#33313f" fill="none" d="m496.78,563.43a130.24,130.24 0 0 1 15.56,0.2a1.47,1.47 0 0 1 1.32,1.3l0.49,4.08a0.6,0.6 0 0 1 -0.12,0.54a0.55,0.55 0 0 1 -0.38,0.1c-2.18,0.06 -4.36,-0.2 -6.53,0c-1.35,0.1 -2.69,0.37 -4,0.52a47.75,47.75 0 0 1 -6.66,0.11a33.55,33.55 0 0 1 -9.27,-1.13s0.18,-3.39 0.18,-3.72c0,-1.58 -0.05,-1.71 1.58,-1.75l7.83,-0.25z"/>
  <path id="svg_61" stroke-width="2" stroke-miterlimit="10" stroke-linecap="round" stroke="#33313f" fill="#fff" d="m503.35,477.84a6.61,6.61 0 0 1 0.44,3.48a0.52,0.52 0 0 1 -0.07,0.27a0.54,0.54 0 0 1 -0.42,0.15l-9.5,0.37s0.53,-2.8 0.6,-3c0.33,-1.14 1.16,-0.84 2.23,-0.9l6.72,-0.37z"/>
  <path id="svg_62" stroke-width="2" stroke-miterlimit="10" stroke-linecap="round" stroke="#33313f" fill="#fff" d="m517.7,477.84a6.61,6.61 0 0 1 0.43,3.48a0.51,0.51 0 0 1 -0.06,0.27a0.56,0.56 0 0 1 -0.42,0.15l-9.51,0.37s0.54,-2.8 0.61,-3c0.32,-1.14 1.15,-0.84 2.23,-0.9l6.72,-0.37z"/>
  <path id="svg_63" stroke-width="3" stroke-miterlimit="10" stroke="#33313f" fill="none" d="m511.97,430.1l1.28,11a3,3 0 0 1 -2.73,3.31a142.81,142.81 0 0 1 -24.38,-0.16a3,3 0 0 1 -2.71,-2.86a42.69,42.69 0 0 0 -0.86,-5.83c-0.33,-2 -0.69,-3.93 1.67,-4.52s5.59,-0.17 8.17,-0.22q4.64,-0.09 9.25,-0.26c0.86,0 10.31,-0.51 10.31,-0.46z"/>
  <path id="svg_64" stroke-width="3" stroke-miterlimit="10" stroke="#33313f" fill="none" d="m511.97,469.84l1.26,-11a3,3 0 0 0 -2.73,-3.31a143.84,143.84 0 0 0 -24.38,0.15a3,3 0 0 0 -2.71,2.87a42.69,42.69 0 0 1 -0.86,5.83c-0.33,2 -0.69,3.93 1.67,4.52s5.59,0.17 8.17,0.22c3.09,0.06 6.17,0.14 9.25,0.26c0.88,0.03 10.33,0.54 10.33,0.46z"/>
  <path id="svg_65" stroke-width="2" stroke-miterlimit="10" stroke-linecap="round" stroke="#33313f" fill="none" d="m499.12,519.41q-0.5,5.49 -0.63,11a52.07,52.07 0 0 1 -10.91,-1.25a1.93,1.93 0 0 1 -1.79,-2.36c-0.07,-2.28 -1.27,-7.37 1.94,-7.69c0.96,-0.1 11.38,0.48 11.39,0.3z"/>
  <path id="svg_66" stroke-width="3" stroke-miterlimit="10" stroke-linecap="round" stroke="#33313f" fill="#fff" d="m322.55,469.45a3.19,3.19 0 0 1 3.52,3.47c-1.15,13.31 -0.24,26.94 1.26,40.21c0.67,5.9 1.56,12.11 3.92,16.76a2.62,2.62 0 0 1 -2.32,3.82l0,0l-44.28,0.26a1.76,1.76 0 0 1 -1.73,-2.14c3.51,-15.22 2.74,-31.84 1.31,-47.58c-0.72,-7.81 -1.12,-12 4.7,-12.55c6,-0.53 12,-0.78 17.95,-1.29c1.27,-0.1 10.35,-0.38 15.67,-0.96z"/>
  <path id="svg_67" stroke-width="3" stroke-miterlimit="10" stroke="#33313f" fill="#fff" d="m384.15,469.2a1.59,1.59 0 0 0 -1.82,1.76c1.43,13.93 0.5,28.25 -1.07,42.17c-0.72,6.39 -1.71,13.12 -4.53,17.87a1.58,1.58 0 0 0 0.42,2.07a4.19,4.19 0 0 0 2.54,0.64l44.51,0.26a1.6,1.6 0 0 0 1.55,-2c-3.55,-15.27 -2.79,-31.95 -1.35,-47.75c0.71,-7.81 1.12,-12 -4.7,-12.55c-6,-0.53 -12,-0.78 -18,-1.29c-1.47,-0.09 -12.77,-0.42 -17.55,-1.18z"/>
  <line id="svg_68" stroke-width="2" stroke-miterlimit="10" stroke-linecap="round" stroke="#33313f" fill="#fff" y2="508.49" x2="318.68" y1="478.29" x1="296.04"/>
  <line id="svg_69" stroke-width="2" stroke-miterlimit="10" stroke-linecap="round" stroke="#33313f" fill="#fff" y2="510" x2="296.79" y1="476.03" x1="318.68"/>
  <line id="svg_70" stroke-width="2" stroke-miterlimit="10" stroke-linecap="round" stroke="#33313f" fill="#fff" y2="496.16" x2="409.4" y1="479.71" x1="397.07"/>
  <line id="svg_71" stroke-width="2" stroke-miterlimit="10" stroke-linecap="round" stroke="#33313f" fill="#fff" y2="496.98" x2="397.48" y1="478.47" x1="409.4"/>
  <path id="svg_72" stroke-width="2" stroke-miterlimit="10" stroke-linecap="round" stroke="#33313f" fill="none" d="m303.52,518.14a132.56,132.56 0 0 1 15.57,0.19a1.49,1.49 0 0 1 1.32,1.3l0.48,4.09a0.63,0.63 0 0 1 -0.11,0.54a0.7,0.7 0 0 1 -0.38,0.1c-2.18,0.06 -4.37,-0.2 -6.54,0c-1.35,0.1 -2.68,0.36 -4,0.51a47.72,47.72 0 0 1 -6.66,0.12a33.44,33.44 0 0 1 -9.26,-1.14c-0.06,0 0.18,-3.38 0.18,-3.71c0,-1.58 -0.06,-1.71 1.57,-1.76l7.83,-0.24z"/>
  <path id="svg_73" stroke-width="2" stroke-miterlimit="10" stroke-linecap="round" stroke="#33313f" fill="none" d="m398.64,503.04a130.43,130.43 0 0 1 15.57,0.2a1.47,1.47 0 0 1 1.32,1.3l0.48,4.08a0.63,0.63 0 0 1 -0.11,0.54a0.56,0.56 0 0 1 -0.38,0.1c-2.18,0.06 -4.37,-0.2 -6.54,0c-1.35,0.1 -2.68,0.37 -4,0.51a46.26,46.26 0 0 1 -6.66,0.12a33.56,33.56 0 0 1 -9.27,-1.14c-0.05,0 0.18,-3.38 0.18,-3.71c0,-1.58 -0.05,-1.71 1.58,-1.76l7.83,-0.24z"/>
  <path id="svg_74" stroke-width="2" stroke-miterlimit="10" stroke-linecap="round" stroke="#33313f" fill="none" d="m406.57,514.37a132.39,132.39 0 0 0 -15.56,0.19a1.47,1.47 0 0 0 -1.32,1.3l-0.46,4.08a0.57,0.57 0 0 0 0.11,0.54a0.55,0.55 0 0 0 0.38,0.1c2.18,0.06 4.36,-0.19 6.54,0c1.35,0.1 2.68,0.37 4,0.52a49.33,49.33 0 0 0 6.66,0.12a33.47,33.47 0 0 0 9.27,-1.14c0.05,0 -0.18,-3.39 -0.18,-3.71c0,-1.59 0.06,-1.72 -1.57,-1.76l-7.87,-0.24z"/>
  <path id="svg_75" stroke-width="3" stroke-miterlimit="10" stroke="#33313f" fill="none" d="m341.86,506.97s14.71,-0.75 17.35,0"/>
  <path id="svg_76" stroke-width="3" stroke-miterlimit="10" stroke="#33313f" fill="none" d="m359.23,499.05s6.41,6.41 6.41,7.92s-8.3,6.79 -8.3,6.79"/>
  <path id="svg_77" stroke-width="3" stroke-miterlimit="10" stroke="#33313f" fill="none" d="m438.07,493.29s13.33,-6.24 16.06,-6.54"/>
  <path id="svg_78" stroke-width="3" stroke-miterlimit="10" stroke="#33313f" fill="none" d="m451.15,479.42s8.35,3.52 8.92,4.91s-5.12,9.42 -5.12,9.42"/>
  <path id="svg_79" stroke-width="3" stroke-miterlimit="10" stroke="#33313f" fill="none" d="m437.93,509.27s13.55,5.75 15.6,7.59"/>
  <path id="svg_80" stroke-width="3" stroke-miterlimit="10" stroke="#33313f" fill="none" d="m456.99,509.73s3,8.57 2.3,9.93s-10.43,2.48 -10.43,2.48"/>
  <path id="svg_81" stroke-width="2" stroke-miterlimit="10" stroke-linecap="round" stroke="#33313f" fill="#fff" d="m490.52,477.84a6.61,6.61 0 0 1 0.43,3.48a0.51,0.51 0 0 1 -0.06,0.27a0.56,0.56 0 0 1 -0.42,0.15l-9.51,0.37s0.54,-2.8 0.61,-3c0.32,-1.14 1.16,-0.84 2.23,-0.9l6.72,-0.37z"/>
  <polygon id="svg_82" fill="#33313f" points="310.87 564.02 314.23 560.89 311.23 560.77 309.66 563.18 310.87 564.02"/>
  <polygon id="svg_83" fill="#65617d" points="286.7 585.94 290.26 581.37 291.05 580.55 301.95 569.13 305.66 565.25 307.4 565.04 309.9 562.56 311.37 563.85 308.94 566.69 308.98 568.18 305.19 572.29 294.49 583.91 293.8 584.65 289.5 588.63 286.7 585.94"/>
  <polygon id="svg_84" fill="#33313f" points="291.05 580.55 301.95 569.13 305.19 572.29 294.49 583.91 291.05 580.55"/>
  <path id="svg_85" fill="url(#ed123d47-1cc8-43ee-8efc-264e01b6d696)" d="m307.5,584.95a48,48 0 0 1 -8.19,-10c-4.8,-7.48 -12.82,-11.52 -18.32,-13.53l0,-2.43l0.34,-0.07l-0.15,-2.26l0.15,0l-0.39,-6l0,-0.05l0,0l-1.98,-29.77s-7.05,-19.85 5.48,-38.16s0.78,-35.87 -11,-42.74c0,0 -5.48,-29 -0.78,-35.87a203.68,203.68 0 0 0 -19.68,-9.95c-0.11,-0.36 -0.2,-0.72 -0.29,-1.1c-0.13,-2.7 -0.3,-5.4 -0.45,-8.1a29.47,29.47 0 0 1 0.77,-4.16c0.15,-0.57 0.32,-1.14 0.5,-1.73a29.78,29.78 0 0 0 19.15,-27.61a29,29 0 0 0 -1.86,-10.24a12.87,12.87 0 0 0 1.43,-3.34c0.75,-3.09 -0.1,-6.39 -1.86,-9.52c-3.14,-6.78 -10.97,-13.13 -16.65,-15.48c-8.14,-3.3 -20.39,-2.52 -28.87,-1.5c-4.76,0.57 -10.19,2.16 -11.91,6.52c-0.63,1.6 -0.64,3.37 -1.08,5c-1.78,6.66 -9.47,9.76 -14.22,14.86c-4.2,4.5 -6,10.59 -7.4,16.52a151.21,151.21 0 0 0 -2.75,51.85c0.48,4 1.12,7.95 1.8,11.91c-2.86,4 -5.44,11.07 -4.26,23.35l-9.4,44.26l-3.91,25.95s-2.35,10.68 7,19.84c6,5.84 13.25,15.71 17.72,22.1a52.45,52.45 0 0 0 -2.85,17.59c0.1,2.72 0.25,5.35 0.44,7.85a69.33,69.33 0 0 0 3,15.64c1.1,10.66 3.27,24.29 7.52,33l1.56,46.55s-2.35,42.74 -7,51.13s10.17,79.37 10.17,79.37l0,9.92l-2.5,7.34l-0.63,-0.47c-11.74,14.5 0,19.84 0,19.84s3.2,0.15 8.31,0.35a9.36,9.36 0 0 0 5,10.34s66.53,3.05 78.28,0s8.61,-13.74 2.34,-13c-2.39,0.3 -5.92,-0.33 -9.37,-1.22c3.65,-4.25 0.73,-10 -3.93,-9.46c-6.26,0.76 -20.35,-4.78 -20.35,-4.78l-0.07,0.09a10.5,10.5 0 0 0 -1.38,-0.42a156.67,156.67 0 0 1 -15.49,-4.33c-3,-6.43 -10,-23.71 -5,-37.11c2.26,-6.06 3,-14.12 3,-21.94a249,249 0 0 1 10.31,-69.66l9.39,-32s13.31,-38.93 14.09,-49.61l-0.05,-15.54c11,7 19.75,4.9 25.33,1.63a6,6 0 0 0 0.94,-9.65zm-104.47,-81c0.27,-1.12 0.49,-2.34 0.68,-3.63c1.84,0 3.69,0 5.53,-0.06a28.17,28.17 0 0 1 2.78,15c-4.24,-1.31 -10.58,-4.52 -8.99,-11.26l0,-0.05z"/>
  <path id="svg_86" fill="#db8b8b" d="m210.47,810.84l-3,9l9.79,9.79l32.39,7.53l23.35,-2.26l-1.51,-8.29l0,0a10,10 0 0 0 -7.42,-7.29c-9.6,-2.26 -27.9,-7.4 -31.75,-14.55l-21.85,6.07z"/>
  <path id="svg_87" opacity="0.1" d="m210.47,810.84l-3,9l9.79,9.79l32.39,7.53l23.35,-2.26l-1.51,-8.29l0,0a10,10 0 0 0 -7.42,-7.29c-9.6,-2.26 -27.9,-7.4 -31.75,-14.55l-21.85,6.07z"/>
  <path id="svg_88" fill="#2e3037" d="m265.46,832.64l-4.52,-6l4.52,-7s13.55,5.47 19.58,4.72s9,9.79 -2.26,12.8s-75.32,0 -75.32,0s-11.3,-5.27 0,-19.58l9.79,7.53s16.57,9 24.86,7.53l23.35,0z"/>
  <path id="svg_89" fill="#db8b8b" d="m285.79,845.45l-23.35,2.26l-32.39,-7.54l-9.82,-9.79l0.8,-2.39l1.12,-3.36l1.1,-3.29l21.84,-6a13.5,13.5 0 0 0 4.43,4.43c7.09,4.85 19.84,8.36 27.32,10.11c0.31,0.08 0.63,0.17 0.93,0.28a9.92,9.92 0 0 1 6.49,7l1.53,8.29z"/>
  <path id="svg_90" opacity="0.1" d="m285.79,845.45l-23.35,2.26l-32.39,-7.54l-9.82,-9.79l0.8,-2.39l9,6.91s16.58,9 24.86,7.53l23.34,0l-4.52,-6l4.06,-6.27a9.92,9.92 0 0 1 6.49,7l1.53,8.29z"/>
  <path id="svg_91" fill="#2e3037" d="m278.23,843.19l-4.52,-6l4.52,-7s13.56,5.47 19.58,4.72s9,9.79 -2.25,12.81s-75.33,0 -75.33,0s-11.3,-5.28 0,-19.59l9.79,7.53s16.58,9 24.86,7.54l23.35,-0.01z"/>
  <path id="svg_92" fill="#db8b8b" d="m259.43,406.32s-36.15,3.76 -30.88,-11.3a27,27 0 0 0 1.11,-13.3a36.91,36.91 0 0 0 -6.38,-15.32l33.89,5.27a42.32,42.32 0 0 0 -4.59,10.88c-4.04,15.99 6.85,23.77 6.85,23.77z"/>
  <path id="svg_93" fill="#35323e" d="m197.67,578.05s0.75,32.39 8.28,48.21l1.51,45.94s-2.26,42.19 -6.78,50.47s9.79,78.34 9.79,78.34l0,12.05s24.1,9 30.88,-1.51l-6.78,-89.63l3,-124.28l-39.9,-19.59z"/>
  <path id="svg_94" opacity="0.1" d="m197.66,578.05s0.75,32.39 8.28,48.21l1.51,45.94s-2.26,42.19 -6.78,50.47s9.79,78.34 9.79,78.34l0,12.05s24.1,9 30.88,-1.51l-6.78,-89.63l3,-124.28l-39.9,-19.59z"/>
  <path id="svg_95" fill="#d0b8ad" d="m182.6,474.11l-4.52,12.05l-3.76,25.61a22.65,22.65 0 0 0 6.78,19.58c9,9 21.09,27.87 21.09,27.87l14.31,-42.93s-14.31,-2.26 -12,-12.05s1.5,-27.87 1.5,-27.87l-23.4,-2.26z"/>
  <path id="svg_96" opacity="0.1" d="m249.55,819.75c-9.67,15.21 -24.7,6.59 -27.37,4.88l1.1,-3.29l21.84,-6a13.5,13.5 0 0 0 4.43,4.41z"/>
  <path id="svg_97" fill="#35323e" d="m279.77,607.43c-0.76,10.54 -13.56,49 -13.56,49l-9,31.61a251.29,251.29 0 0 0 -9.98,68.72c0,7.71 -0.71,15.67 -2.88,21.65c-6,16.57 6,39.17 6,39.17c-10.54,18.83 -28.62,6 -28.62,6l0,-12s-14.27,-65.56 -10.5,-78.36s5.28,-47.46 5.28,-47.46l0,-62.51a70.9,70.9 0 0 1 -20.67,-45c-0.18,-2.47 -0.33,-5.06 -0.42,-7.75c-0.61,-17 11,-36.92 15.54,-44c1.1,-1.72 1.78,-2.68 1.78,-2.68l66.49,26.38l0.15,0.06l0,2.57l0,5.7l0.39,48.9z"/>
  <path id="svg_98" opacity="0.1" d="m257.17,371.67a42.32,42.32 0 0 0 -4.59,10.88a29.42,29.42 0 0 1 -22.92,-0.83a36.91,36.91 0 0 0 -6.38,-15.32l33.89,5.27z"/>
  <circle id="svg_99" fill="#db8b8b" r="29.38" cy="353.59" cx="242.11"/>
  <path id="svg_100" opacity="0.1" d="m279.77,558.47l-0.33,0.06c-31.58,6.49 -71.21,-26.42 -71.21,-26.42a38,38 0 0 0 2.74,-5.61c1.1,-1.72 1.78,-2.68 1.78,-2.68l66.48,26.38l0.17,2.63l0.37,5.64z"/>
  <path id="svg_101" fill="#d0b8ad" d="m271.48,405.57s-42.18,-25.61 -55.74,-15.07l-18.83,24.1s-12.05,3.77 -9.79,27.87l-9,43.69l27.11,6.78s15.82,15.06 3,36.91c0,0 39.92,33.14 71.56,26.36l-2.28,-35.37s-6.78,-19.59 5.27,-37.66s0.75,-35.4 -10.54,-42.18c-0.01,-0.03 -5.28,-28.66 -0.76,-35.43z"/>
  <path id="svg_102" fill="#db8b8b" d="m273.74,559.22s15.82,3 23.35,15.07a46.86,46.86 0 0 0 7.89,9.85a6,6 0 0 1 -0.94,9.52c-6,3.6 -15.72,5.81 -28,-4.31c-21.13,-17.32 -2.3,-30.13 -2.3,-30.13z"/>
  <path id="svg_103" opacity="0.1" d="m250.39,419.84s-15.06,-1.51 -18.83,37.66s-9.79,48.2 -9.79,48.2s-3.77,20.34 5.27,32.39s26.36,37.75 26.36,37.75s18.84,5.28 22.6,-13.56l-23.35,-43.68s-3.76,-15.07 5.27,-25.61s15.82,-80.65 -7.53,-73.15z"/>
  <path id="svg_104" fill="#d0b8ad" d="m251.9,417.62s-15.07,-1.51 -18.83,37.66s-9.79,48.2 -9.79,48.2s-3.77,20.36 5.27,32.36s26.36,37.66 26.36,37.66s18.83,5.28 22.6,-13.55l-23.35,-43.69s-3.77,-15.07 5.27,-25.61s15.8,-80.57 -7.53,-73.03z"/>
  <path id="svg_105" opacity="0.1" d="m264.33,445.84s1.5,23.35 -5.28,36.16s-6.78,29.37 0,38.41"/>
  <path id="svg_106" opacity="0.1" d="m268.09,417.24s-6,-6 -23.35,-6.78s-24.85,-6 -24.85,-6"/>
  <path id="svg_107" opacity="0.1" d="m226.23,315.63c-4.58,0.56 -9.81,2.13 -11.46,6.44c-0.61,1.58 -0.62,3.32 -1.05,5c-1.71,6.58 -9.11,9.64 -13.68,14.67c-4,4.44 -5.81,10.45 -7.12,16.3a153.13,153.13 0 0 0 -2.69,51.14c1.47,12.49 4.47,24.78 5.32,37.33s-0.7,25.75 -7.56,36.29c-3,4.54 -6.84,8.52 -8.93,13.51c4.32,3.5 10.28,4 15.84,4.19q9.72,0.33 19.44,0c3.4,-0.12 6.95,-0.34 9.88,-2.06a15.31,15.31 0 0 0 5.19,-5.56c3.7,-6.29 4.64,-13.85 4.48,-21.15s-1.31,-14.55 -1.45,-21.85c-0.07,-4 0.24,-8.2 2.53,-11.46c1.65,-2.35 4.16,-3.93 6.31,-5.84c8.07,-7.14 10.83,-18.6 11.1,-29.37s-1.5,-21.56 -0.59,-32.29c0.35,-4.21 1.92,-9.25 6.06,-10.07c1.3,-0.26 2.69,0 3.93,-0.5c3.32,-1.27 3,-5.95 3.94,-9.37c1.07,-3.85 4.35,-6.82 5.27,-10.7c2.17,-9.11 -9.43,-20 -17,-23.16c-7.85,-3.28 -19.64,-2.49 -27.76,-1.49z"/>
  <path id="svg_108" fill="#35323e" d="m225.44,314.13c-4.58,0.56 -9.81,2.13 -11.46,6.43a46,46 0 0 0 -1,5c-1.71,6.58 -9.12,9.64 -13.69,14.68c-4,4.43 -5.81,10.44 -7.12,16.3a153.33,153.33 0 0 0 -2.64,51.17c1.47,12.49 4.47,24.79 5.31,37.33s-0.69,25.75 -7.55,36.29c-3,4.54 -6.84,8.52 -8.93,13.51c4.32,3.51 10.28,4 15.84,4.19q9.72,0.33 19.44,0c3.4,-0.12 6.95,-0.33 9.88,-2.06a15.13,15.13 0 0 0 5.18,-5.56c3.71,-6.29 4.64,-13.85 4.49,-21.15s-1.32,-14.55 -1.45,-21.85c-0.07,-4 0.24,-8.2 2.52,-11.45c1.66,-2.36 4.17,-3.94 6.32,-5.84c8.06,-7.15 10.83,-18.61 11.1,-29.38s-1.51,-21.56 -0.6,-32.29c0.36,-4.2 1.93,-9.25 6.06,-10.06c1.31,-0.26 2.7,0 3.94,-0.51c3.32,-1.27 3,-5.94 3.94,-9.37c1.06,-3.85 4.34,-6.81 5.27,-10.69c2.17,-9.12 -9.43,-20 -17,-23.17c-7.91,-3.3 -19.69,-2.53 -27.85,-1.52z"/>
 </g>
</svg>